<svg width="24" height="23" viewBox="0 0 24 23" fill="none" xmlns="http://www.w3.org/2000/svg">
<path d="M23.58 7.88948C23.2289 7.48806 22.7023 7.23 22.1757 7.23H20.713L15.0666 0.405898C14.7156 -0.0241932 14.1012 -0.110211 13.6331 0.205189C13.1943 0.549261 13.1065 1.15139 13.4283 1.61015C13.4283 1.63882 13.4576 1.63882 13.4576 1.6675L18.1092 7.23H5.58782L10.2102 1.6675C10.5905 1.26608 10.5613 0.635279 10.1517 0.262534C9.74211 -0.110211 9.09849 -0.0815386 8.71817 0.319879C8.68891 0.348552 8.65965 0.377225 8.6304 0.405898L2.98407 7.25868H1.81385C0.819156 7.25868 0 8.06151 0 9.03639C0 9.15108 0 9.26577 0.0292556 9.38046L2.3697 20.9356C2.60375 22.1398 3.6862 23 4.94419 23H19.0454C20.3034 23 21.3858 22.1398 21.6199 20.9356L23.9603 9.38046C24.0773 8.86435 23.9311 8.31957 23.58 7.88948ZM8.95221 17.2655C8.95221 17.8102 8.48412 18.269 7.92826 18.269C7.37241 18.269 6.90432 17.8102 6.90432 17.2655V13.1939C6.90432 12.6491 7.37241 12.1904 7.92826 12.1904C8.48412 12.1904 8.95221 12.6491 8.95221 13.1939V17.2655ZM13.0187 17.2655C13.0187 17.8102 12.5506 18.269 11.9948 18.269C11.4389 18.269 10.9708 17.8102 10.9708 17.2655V13.1939C10.9708 12.6491 11.4389 12.1904 11.9948 12.1904C12.5506 12.1904 13.0187 12.6491 13.0187 13.1939V17.2655ZM17.056 17.2655C17.056 17.8102 16.5879 18.269 16.0321 18.269C15.4762 18.269 15.0081 17.8102 15.0081 17.2655V13.1939C15.0081 12.6491 15.4762 12.1904 16.0321 12.1904C16.5879 12.1904 17.056 12.6491 17.056 13.1939V17.2655Z" fill="white"/>
</svg>
