<svg width="23" height="23" viewBox="0 0 23 23" fill="none" xmlns="http://www.w3.org/2000/svg">
<path d="M11 0C7.6916 0 5 2.6916 5 6C5 9.3084 7.6916 12 11 12C14.3084 12 17 9.3084 17 6C17 2.6916 14.3084 0 11 0Z" fill="white"/>
<path d="M18.4652 15.745C16.8225 13.9749 14.6448 13 12.3333 13H9.66667C7.3552 13 5.17751 13.9749 3.53484 15.745C1.90022 17.5066 1 19.8317 1 22.2925C1 22.6832 1.29849 23 1.66667 23H20.3333C20.7015 23 21 22.6832 21 22.2925C21 19.8317 20.0998 17.5066 18.4652 15.745Z" fill="white"/>
</svg>
