<svg width="24" height="24" viewBox="0 0 24 24" fill="none" xmlns="http://www.w3.org/2000/svg">
<g clip-path="url(#clip0_445_277)">
<path d="M2.84742 16.6198C-0.949505 12.8228 -0.949427 6.64462 2.84742 2.84763C6.64441 -0.949371 12.8225 -0.949371 16.6195 2.84763C19.8407 6.06886 20.3286 10.8597 18.0843 14.6008C18.0843 14.6008 17.9231 14.8712 18.1409 15.0888C19.3829 16.3308 23.1093 20.0572 23.1093 20.0572C24.0983 21.0461 24.3337 22.4289 23.4567 23.306L23.3057 23.4568C22.4287 24.334 21.0459 24.0986 20.057 23.1097C20.057 23.1097 16.3385 19.3911 15.099 18.1517C14.8708 17.9235 14.6005 18.0847 14.6005 18.0847C10.8595 20.3288 6.06865 19.8411 2.84742 16.6198ZM14.8216 14.8219C17.6272 12.0163 17.6271 7.45132 14.8215 4.64573C12.0159 1.84022 7.45096 1.84014 4.64545 4.64573C1.83985 7.45125 1.83985 12.0163 4.64545 14.8219C7.45104 17.6273 12.0159 17.6273 14.8216 14.8219Z" fill="#4361EE"/>
<path d="M14.2004 9.15591C14.331 9.15591 14.4637 9.13024 14.5917 9.0762C15.1028 8.85987 15.3419 8.27011 15.1256 7.75891C13.766 4.54579 10.0458 3.03793 6.83277 4.39758C6.32164 4.61391 6.08251 5.20366 6.29883 5.71487C6.51524 6.22607 7.10484 6.46505 7.6162 6.2488C9.80838 5.32118 12.3468 6.35001 13.2743 8.54218C13.4366 8.92559 13.8088 9.15591 14.2004 9.15591Z" fill="#4361EE"/>
</g>
<defs>
<clipPath id="clip0_445_277">
<rect width="24" height="24" fill="white" transform="matrix(-1 0 0 1 24 0)"/>
</clipPath>
</defs>
</svg>
